<mxfile host="app.diagrams.net" modified="2023-01-16T10:31:36.391Z" agent="5.0 (Windows NT 10.0; Win64; x64) AppleWebKit/537.36 (KHTML, like Gecko) Chrome/109.0.0.0 Safari/537.36" version="20.8.5" etag="myPbBlXRr_9RAzGDoW9X" type="github">
  <diagram id="oesPsa7_vZeEH3mj6Hsd" name="第 1 页">
    <mxGraphModel dx="1050" dy="549" grid="1" gridSize="10" guides="1" tooltips="1" connect="1" arrows="1" fold="1" page="1" pageScale="1" pageWidth="827" pageHeight="1169" math="0" shadow="0">
      <root>
        <mxCell id="0" />
        <mxCell id="1" parent="0" />
        <mxCell id="P9Kb3-XQz3xuEjJXLdzb-2" value="" style="rounded=1;whiteSpace=wrap;html=1;strokeWidth=2;fillWeight=4;hachureGap=8;hachureAngle=45;sketch=1;" vertex="1" parent="1">
          <mxGeometry x="60" y="100" width="210" height="230" as="geometry" />
        </mxCell>
        <mxCell id="P9Kb3-XQz3xuEjJXLdzb-6" value="&lt;h1&gt;HTTP1&lt;/h1&gt;&lt;p&gt;&lt;font style=&quot;font-size: 18px;&quot;&gt;&lt;font style=&quot;&quot;&gt;队头阻塞&lt;br&gt;传输效率&lt;br&gt;明文传输不安全&lt;/font&gt;&lt;/font&gt;&lt;/p&gt;" style="text;html=1;strokeColor=none;fillColor=none;spacing=5;spacingTop=-20;whiteSpace=wrap;overflow=hidden;rounded=0;fontSize=24;" vertex="1" parent="1">
          <mxGeometry x="90" y="90" width="204" height="230" as="geometry" />
        </mxCell>
        <mxCell id="P9Kb3-XQz3xuEjJXLdzb-7" value="" style="rounded=1;whiteSpace=wrap;html=1;strokeWidth=2;fillWeight=4;hachureGap=8;hachureAngle=45;sketch=1;" vertex="1" parent="1">
          <mxGeometry x="320" y="100" width="210" height="230" as="geometry" />
        </mxCell>
        <mxCell id="P9Kb3-XQz3xuEjJXLdzb-8" value="&lt;h1&gt;HTTP2&lt;/h1&gt;&lt;p&gt;&lt;span style=&quot;font-size: 18px;&quot;&gt;多路复用&lt;br&gt;头部压缩&lt;br&gt;二进制协议&lt;/span&gt;&lt;/p&gt;" style="text;html=1;strokeColor=none;fillColor=none;spacing=5;spacingTop=-20;whiteSpace=wrap;overflow=hidden;rounded=0;fontSize=24;" vertex="1" parent="1">
          <mxGeometry x="350" y="90" width="204" height="230" as="geometry" />
        </mxCell>
        <mxCell id="P9Kb3-XQz3xuEjJXLdzb-9" value="" style="rounded=1;whiteSpace=wrap;html=1;strokeWidth=2;fillWeight=4;hachureGap=8;hachureAngle=45;sketch=1;" vertex="1" parent="1">
          <mxGeometry x="580" y="100" width="210" height="230" as="geometry" />
        </mxCell>
        <mxCell id="P9Kb3-XQz3xuEjJXLdzb-10" value="&lt;h1&gt;QUIC&lt;/h1&gt;&lt;p&gt;&lt;span style=&quot;font-size: 18px;&quot;&gt;基于UDP实现&lt;br&gt;解决队头阻塞&lt;br&gt;加密减少握手次数&lt;br&gt;支持快速启动&lt;/span&gt;&lt;/p&gt;" style="text;html=1;strokeColor=none;fillColor=none;spacing=5;spacingTop=-20;whiteSpace=wrap;overflow=hidden;rounded=0;fontSize=24;" vertex="1" parent="1">
          <mxGeometry x="623" y="90" width="204" height="230" as="geometry" />
        </mxCell>
      </root>
    </mxGraphModel>
  </diagram>
</mxfile>
